<svg width="608" height="556" viewBox="0 0 608 556" fill="none" xmlns="http://www.w3.org/2000/svg">
<path d="M89.2946 509.822C207.96 571.025 400.34 571.025 519.006 509.822C637.672 448.619 637.658 349.397 519.006 288.194C400.355 226.991 207.96 226.991 89.2946 288.194C-29.3711 349.397 -29.3569 448.619 89.2946 509.822Z" fill="#F5F5F5"/>
<path d="M520.635 358.975C543.763 358.975 562.513 350.154 562.513 339.273C562.513 328.392 543.763 319.571 520.635 319.571C497.506 319.571 478.757 328.392 478.757 339.273C478.757 350.154 497.506 358.975 520.635 358.975Z" fill="#E6E6E6"/>
<path d="M88.5581 474.235C109.762 474.235 126.952 466.147 126.952 456.17C126.952 446.192 109.762 438.104 88.5581 438.104C67.3537 438.104 50.1642 446.192 50.1642 456.17C50.1642 466.147 67.3537 474.235 88.5581 474.235Z" fill="#E6E6E6"/>
<path d="M373.616 508.969C395.681 508.969 413.568 500.549 413.568 490.162C413.568 479.775 395.681 471.355 373.616 471.355C351.551 471.355 333.664 479.775 333.664 490.162C333.664 500.549 351.551 508.969 373.616 508.969Z" fill="#E6E6E6"/>
<path d="M175.316 418.975C197.381 418.975 215.268 410.555 215.268 400.168C215.268 389.782 197.381 381.361 175.316 381.361C153.251 381.361 135.364 389.782 135.364 400.168C135.364 410.555 153.251 418.975 175.316 418.975Z" fill="#E6E6E6"/>
<path d="M410.424 293.284C411.401 281.692 438.31 238.205 446.538 231.466C454.766 224.726 469.297 207.695 463.037 198.019C456.777 188.342 438.38 192.649 421.102 222.81C407.705 246.203 403.541 297.94 403.541 297.94L410.424 293.284Z" fill="#02897A"/>
<path d="M406.742 292.193H406.628C406.537 292.18 406.449 292.148 406.37 292.1C406.29 292.053 406.222 291.99 406.168 291.916C406.114 291.841 406.075 291.757 406.054 291.668C406.034 291.579 406.032 291.486 406.048 291.396C413.653 242.848 429.812 212.561 455.446 198.802C455.611 198.713 455.805 198.692 455.986 198.745C456.075 198.771 456.159 198.814 456.231 198.871C456.304 198.929 456.364 199.001 456.409 199.081C456.453 199.162 456.481 199.251 456.491 199.342C456.501 199.434 456.493 199.526 456.467 199.615C456.44 199.703 456.397 199.785 456.338 199.857C456.28 199.929 456.207 199.988 456.126 200.032C430.903 213.568 414.984 243.533 407.436 291.62C407.406 291.78 407.32 291.925 407.193 292.03C407.067 292.135 406.907 292.192 406.742 292.193Z" fill="white"/>
<path d="M413.129 237.045C413.129 237.045 434.726 200.186 452.613 183.309C462.527 173.954 468.617 167.928 468.079 160.852C467.682 155.483 463.164 152.616 453.449 154.979C434.089 159.678 423.708 179.044 417.024 200.731C412.279 216.001 413.129 237.045 413.129 237.045Z" fill="#37474F"/>
<path opacity="0.2" d="M413.129 237.045C413.129 237.045 434.726 200.186 452.613 183.309C462.527 173.954 468.617 167.928 468.079 160.852C467.682 155.483 463.164 152.616 453.449 154.979C434.089 159.678 423.708 179.044 417.024 200.731C412.279 216.001 413.129 237.045 413.129 237.045Z" fill="#00FFE3"/>
<path d="M415.636 230.99H415.536C415.349 230.959 415.182 230.857 415.071 230.705C414.959 230.553 414.913 230.364 414.942 230.179C422.632 182.274 451.863 164.236 460.643 159.845C460.81 159.763 461.004 159.748 461.182 159.806C461.36 159.864 461.507 159.988 461.592 160.153C461.636 160.234 461.662 160.324 461.67 160.415C461.678 160.507 461.667 160.599 461.638 160.687C461.609 160.774 461.562 160.855 461.501 160.924C461.439 160.994 461.364 161.05 461.281 161.09C452.656 165.411 423.935 183.141 416.344 230.403C416.317 230.568 416.23 230.719 416.1 230.826C415.97 230.934 415.805 230.992 415.636 230.99Z" fill="white"/>
<path d="M534.103 128.244L529.43 119.575L533.183 108.864V102.306L521.683 108.864V115.422L526.626 123.895C526.702 124.028 526.822 124.131 526.965 124.189L534.103 128.244Z" fill="#11B5E4"/>
<path opacity="0.1" d="M534.103 128.244L529.43 119.575L533.183 108.864V102.306L521.683 108.864V115.422L526.626 123.895C526.702 124.028 526.822 124.131 526.965 124.189L534.103 128.244Z" fill="black"/>
<path d="M507.421 87.5401L539.088 69.3624C540.158 68.8312 541.339 68.5545 542.537 68.5545C543.734 68.5545 544.915 68.8312 545.985 69.3624L548.817 70.9704C549.825 71.6143 550.663 72.4848 551.264 73.5105C551.865 74.5362 552.21 75.6879 552.273 76.8712V102.208C552.207 103.391 551.86 104.541 551.26 105.566C550.659 106.591 549.822 107.462 548.817 108.109L517.122 126.287C516.052 126.818 514.871 127.094 513.674 127.094C512.476 127.094 511.295 126.818 510.225 126.287L507.393 124.678C506.389 124.032 505.554 123.161 504.956 122.135C504.358 121.11 504.014 119.959 503.951 118.778V93.4129C504.024 92.2343 504.376 91.089 504.979 90.0691C505.582 89.0491 506.418 88.1829 507.421 87.5401Z" fill="#11B5E4"/>
<path opacity="0.3" d="M507.421 87.5401L539.088 69.3624C540.158 68.8312 541.339 68.5545 542.537 68.5545C543.734 68.5545 544.915 68.8312 545.985 69.3624L548.817 70.9704C549.825 71.6143 550.663 72.4848 551.264 73.5105C551.865 74.5362 552.21 75.6879 552.273 76.8712V102.208C552.207 103.391 551.86 104.541 551.26 105.566C550.659 106.591 549.822 107.462 548.817 108.109L517.122 126.287C516.052 126.818 514.871 127.094 513.674 127.094C512.476 127.094 511.295 126.818 510.225 126.287L507.393 124.678C506.389 124.032 505.554 123.161 504.956 122.135C504.358 121.11 504.014 119.959 503.951 118.778V93.4129C504.024 92.2343 504.376 91.089 504.979 90.0691C505.582 89.0491 506.418 88.1829 507.421 87.5401Z" fill="white"/>
<path d="M517.137 126.259C515.225 127.335 513.681 126.468 513.681 124.287V98.9501C513.747 97.7677 514.094 96.6172 514.695 95.592C515.295 94.5668 516.132 93.6957 517.137 93.0494L548.832 74.8717C550.744 73.781 552.288 74.6619 552.288 76.8433V102.18C552.222 103.363 551.874 104.513 551.274 105.538C550.674 106.563 549.837 107.435 548.832 108.081" fill="#11B5E4"/>
<path d="M503.98 118.75C504.042 119.932 504.386 121.082 504.984 122.107C505.582 123.133 506.417 124.004 507.421 124.651L510.254 126.259C511.226 126.74 512.29 127.013 513.376 127.059C514.462 127.105 515.546 126.922 516.556 126.524C514.942 127.139 513.724 126.231 513.724 124.287V98.9501C513.77 97.7641 514.12 96.6092 514.743 95.5942L505.028 90.0011C504.41 91.0174 504.064 92.1722 504.022 93.357L503.98 118.75Z" fill="#11B5E4"/>
<path opacity="0.1" d="M503.98 118.75C504.042 119.932 504.386 121.082 504.984 122.107C505.582 123.133 506.417 124.004 507.421 124.651L510.254 126.259C511.226 126.74 512.29 127.013 513.376 127.059C514.462 127.105 515.546 126.922 516.556 126.524C514.942 127.139 513.724 126.231 513.724 124.287V98.9501C513.77 97.7641 514.12 96.6092 514.743 95.5942L505.028 90.0011C504.41 91.0174 504.064 92.1722 504.022 93.357L503.98 118.75Z" fill="black"/>
<path d="M528.891 119.533L533.834 127.992C533.907 128.112 534.013 128.208 534.139 128.27C534.265 128.333 534.406 128.359 534.547 128.346C534.687 128.333 534.821 128.281 534.933 128.196C535.045 128.111 535.13 127.997 535.179 127.867L540.405 112.975V106.417L528.891 112.975V119.533Z" fill="#11B5E4"/>
<path d="M532.998 110.877L529.458 109.955C526.087 109.074 522.065 107.158 522.065 102.865C522.235 101.116 522.819 99.4314 523.772 97.947C524.724 96.4627 526.017 95.2208 527.546 94.3217C528.047 93.9678 528.635 93.7532 529.249 93.7003C529.863 93.6474 530.479 93.7581 531.035 94.021C531.591 94.2839 532.065 94.6892 532.408 95.1947C532.75 95.7001 532.949 96.2872 532.984 96.8946C533.338 94.098 535.632 89.7074 538.422 88.1134C541.453 86.3935 543.903 87.4142 543.903 90.4065C543.903 94.6853 539.895 101.201 536.525 105.927L532.998 110.877Z" fill="white"/>
<path d="M64.7938 194.788L96.489 176.68C97.557 176.143 98.7387 175.862 99.9375 175.862C101.136 175.862 102.318 176.143 103.386 176.68L106.218 178.275C107.22 178.923 108.053 179.795 108.651 180.82C109.249 181.845 109.594 182.994 109.66 184.175V209.512C109.594 210.693 109.249 211.842 108.651 212.867C108.053 213.892 107.22 214.764 106.218 215.413L74.5658 233.521C73.4954 234.059 72.3113 234.339 71.1102 234.339C69.9091 234.339 68.7251 234.059 67.6546 233.521L64.8222 231.927C63.8044 231.278 62.9576 230.399 62.3518 229.364C61.746 228.328 61.3986 227.165 61.3383 225.97V200.689C61.4008 199.506 61.7466 198.354 62.3473 197.328C62.948 196.303 63.7864 195.432 64.7938 194.788Z" fill="#FF7800"/>
<path opacity="0.3" d="M64.7938 194.788L96.489 176.68C97.557 176.143 98.7387 175.862 99.9375 175.862C101.136 175.862 102.318 176.143 103.386 176.68L106.218 178.275C107.22 178.923 108.053 179.795 108.651 180.82C109.249 181.845 109.594 182.994 109.66 184.175V209.512C109.594 210.693 109.249 211.842 108.651 212.867C108.053 213.892 107.22 214.764 106.218 215.413L74.5658 233.521C73.4954 234.059 72.3113 234.339 71.1102 234.339C69.9091 234.339 68.7251 234.059 67.6546 233.521L64.8222 231.927C63.8044 231.278 62.9576 230.399 62.3518 229.364C61.746 228.328 61.3986 227.165 61.3383 225.97V200.689C61.4008 199.506 61.7466 198.354 62.3473 197.328C62.948 196.303 63.7864 195.432 64.7938 194.788Z" fill="white"/>
<path d="M91.4613 235.521L86.7878 226.837L90.5549 216.126V209.568L79.041 216.182V222.74L83.9978 231.13C84.0727 231.259 84.1866 231.362 84.3235 231.424L91.4613 235.521Z" fill="#FF7800"/>
<path opacity="0.1" d="M91.4613 235.521L86.7878 226.837L90.5549 216.126V209.568L79.041 216.182V222.74L83.9978 231.13C84.0727 231.259 84.1866 231.362 84.3235 231.424L91.4613 235.521Z" fill="black"/>
<path d="M74.5657 233.521C72.6538 234.612 71.1101 233.731 71.1101 231.549V206.212C71.176 205.032 71.5233 203.883 72.1238 202.86C72.7243 201.837 73.561 200.969 74.5657 200.326L106.275 182.148C108.173 181.071 109.716 181.952 109.716 184.12V209.456C109.651 210.637 109.305 211.787 108.708 212.812C108.11 213.836 107.277 214.708 106.275 215.357" fill="#FF7800"/>
<path d="M61.3383 225.97C61.4042 227.152 61.7514 228.303 62.3518 229.328C62.9522 230.353 63.7888 231.224 64.7938 231.871L67.6263 233.465C68.6006 233.946 69.6663 234.219 70.7544 234.267C71.8425 234.315 72.9287 234.137 73.9427 233.744C72.314 234.346 71.1102 233.437 71.1102 231.493V206.212C71.1518 205.028 71.4978 203.873 72.1157 202.856L62.4146 197.333C61.7917 198.348 61.4408 199.503 61.3949 200.689L61.3383 225.97Z" fill="#FF7800"/>
<path opacity="0.1" d="M61.3383 225.97C61.4042 227.152 61.7514 228.303 62.3518 229.328C62.9522 230.353 63.7888 231.224 64.7938 231.871L67.6263 233.465C68.6006 233.946 69.6663 234.219 70.7544 234.267C71.8425 234.315 72.9287 234.137 73.9427 233.744C72.314 234.346 71.1102 233.437 71.1102 231.493V206.212C71.1518 205.028 71.4978 203.873 72.1157 202.856L62.4146 197.333C61.7917 198.348 61.4408 199.503 61.3949 200.689L61.3383 225.97Z" fill="black"/>
<path d="M86.2638 226.795L91.2064 235.185C91.2773 235.305 91.3815 235.402 91.5066 235.466C91.6318 235.529 91.7728 235.556 91.9128 235.542C92.0529 235.529 92.1861 235.477 92.2969 235.391C92.4076 235.305 92.4912 235.19 92.5377 235.059L97.7635 220.167V213.609L86.2638 220.167V226.795Z" fill="#FF7800"/>
<path d="M78.3895 211.666C77.4341 212.273 76.6407 213.098 76.0763 214.071C75.5118 215.045 75.1928 216.138 75.1464 217.259C75.1464 219.3 76.5626 220.055 78.3895 219.105C79.3384 218.491 80.1269 217.664 80.6905 216.692C81.2542 215.72 81.577 214.63 81.6327 213.511C81.6468 211.47 80.2306 210.589 78.3895 211.666Z" fill="white"/>
<path d="M90.3567 204.828C89.4035 205.439 88.6111 206.264 88.0447 207.237C87.4784 208.209 87.1543 209.301 87.0994 210.421C87.0994 212.463 88.5156 213.288 90.3567 212.267C91.3056 211.653 92.0941 210.826 92.6577 209.854C93.2213 208.882 93.5442 207.793 93.5999 206.674C93.5999 204.632 92.1411 203.807 90.3567 204.828Z" fill="white"/>
<path d="M102.31 198.004C101.361 198.618 100.572 199.445 100.009 200.417C99.445 201.389 99.1222 202.479 99.0665 203.598C99.0665 205.639 100.483 206.394 102.31 205.443C103.265 204.836 104.058 204.011 104.623 203.038C105.187 202.064 105.506 200.971 105.553 199.85C105.553 197.795 104.108 196.97 102.31 198.004Z" fill="white"/>
<path d="M400.878 11.2361L263.193 89.6798C261.408 90.8296 259.923 92.3782 258.858 94.2002C257.793 96.0222 257.177 98.0663 257.061 100.167V401.064C257.061 404.923 259.808 406.489 263.193 404.559L400.878 326.116C402.663 324.966 404.148 323.417 405.213 321.595C406.279 319.773 406.894 317.729 407.011 315.628V14.7318C407.011 10.8726 404.263 9.30648 400.878 11.2361Z" fill="#37474F"/>
<path d="M263.193 89.6798L400.879 11.236C403.909 9.51616 406.416 10.5928 406.912 13.5991C406.632 11.7077 405.95 9.89617 404.91 8.28382C403.87 6.67147 402.496 5.29486 400.879 4.24463L395.879 1.44806C393.979 0.496111 391.878 0 389.747 0C387.616 0 385.515 0.496111 383.615 1.44806L245.929 79.8498C244.118 80.9654 242.626 82.5202 241.596 84.3663L258.859 94.1543C259.896 92.3236 261.387 90.7837 263.193 89.6798Z" fill="#455A64"/>
<path d="M239.797 391.22C239.911 393.321 240.526 395.366 241.591 397.188C242.657 399.01 244.143 400.559 245.929 401.707L250.928 404.503C252.657 405.364 254.55 405.852 256.483 405.936C258.417 406.021 260.347 405.699 262.145 404.993C259.312 406.069 257.061 404.461 257.061 401.008V100.125C257.132 98.0154 257.751 95.9593 258.859 94.1543L241.595 84.3663C240.49 86.1725 239.871 88.2279 239.797 90.337V391.22Z" fill="#263238"/>
<path d="M266.493 127.154L397.579 52.4714C399.604 51.3108 401.261 52.2476 401.261 54.5688V282.363C401.188 283.623 400.817 284.849 400.178 285.942C399.538 287.035 398.648 287.964 397.579 288.655L266.493 363.324C264.468 364.484 262.811 363.548 262.811 361.226V133.446C262.879 132.185 263.248 130.957 263.888 129.864C264.527 128.77 265.42 127.842 266.493 127.154Z" fill="#FAFAFA"/>
<path d="M330.648 62.1336C330.021 62.5396 329.5 63.0851 329.126 63.7263C328.752 64.3674 328.536 65.0863 328.495 65.825C328.495 67.2233 329.458 67.7407 330.648 67.0555C331.276 66.6511 331.798 66.106 332.172 65.4645C332.546 64.823 332.762 64.1033 332.8 63.364C332.8 62.0077 331.837 61.4624 330.648 62.1336Z" fill="#263238"/>
<path d="M310.268 83.7791C309.025 84.5957 307.992 85.6891 307.254 86.9714C306.516 88.2537 306.093 89.689 306.02 91.162C306.02 93.8747 307.946 94.9794 310.268 93.623C311.526 92.815 312.573 91.7252 313.324 90.4423C314.074 89.1593 314.507 87.7196 314.588 86.2401C314.588 83.5274 312.648 82.4228 310.268 83.7791Z" fill="#263238"/>
<path d="M320.819 82.8561C320.819 84.6739 322.236 85.359 323.893 84.3942L352.217 68.2161C353.091 67.6726 353.823 66.9339 354.355 66.0594C354.886 65.185 355.202 64.1994 355.276 63.1823C355.276 61.3785 353.86 60.6933 352.217 61.6581L323.893 77.8363C323.017 78.3759 322.282 79.1116 321.749 79.9837C321.215 80.8558 320.896 81.8399 320.819 82.8561Z" fill="#263238"/>
<path d="M249.342 136.159C250.35 136.803 251.188 137.673 251.789 138.699C252.39 139.725 252.735 140.876 252.798 142.06C252.798 144.227 251.254 145.108 249.342 144.031C248.34 143.38 247.506 142.506 246.908 141.478C246.31 140.451 245.965 139.299 245.901 138.116C245.929 135.949 247.445 135.082 249.342 136.159Z" fill="#37474F"/>
<path d="M249.342 162.404C250.347 163.051 251.184 163.922 251.784 164.947C252.385 165.972 252.732 167.123 252.798 168.305C252.798 170.486 251.254 171.367 249.342 170.277C248.355 169.632 247.533 168.77 246.941 167.758C246.349 166.746 246.002 165.612 245.929 164.446C245.929 162.209 247.445 161.328 249.342 162.404Z" fill="#37474F"/>
<path d="M248.28 136.676C249.285 137.322 250.122 138.193 250.722 139.219C251.322 140.244 251.67 141.394 251.736 142.577C251.736 144.758 250.192 145.639 248.28 144.548C247.277 143.9 246.441 143.029 245.841 142.004C245.241 140.979 244.893 139.829 244.824 138.647C244.824 136.48 246.382 135.599 248.28 136.676Z" fill="#455A64"/>
<path d="M248.28 162.936C249.285 163.582 250.122 164.453 250.722 165.478C251.322 166.504 251.67 167.654 251.736 168.837C251.736 171.018 250.192 171.899 248.28 170.808C247.277 170.16 246.441 169.289 245.841 168.264C245.241 167.239 244.893 166.089 244.824 164.907C244.824 162.726 246.382 161.845 248.28 162.936Z" fill="#455A64"/>
<path d="M332.036 336.043C329.56 337.639 327.501 339.789 326.024 342.318C324.548 344.847 323.696 347.685 323.538 350.599C323.538 355.969 327.348 358.136 332.036 355.465C334.511 353.866 336.571 351.714 338.047 349.183C339.524 346.651 340.375 343.812 340.533 340.895C340.547 335.526 336.738 333.359 332.036 336.043Z" fill="#263238"/>
<path d="M293.67 360.08C292.467 360.08 292.339 358.682 292.339 358.178V130.398C292.413 129.26 292.752 128.155 293.329 127.168C293.907 126.181 294.707 125.339 295.667 124.707L426.753 50.0245C427.145 49.7934 427.587 49.6591 428.042 49.6329C429.246 49.6329 429.373 50.9473 429.373 51.5206V279.315C429.3 280.451 428.962 281.554 428.384 282.539C427.807 283.524 427.006 284.364 426.045 284.992L294.959 359.674C294.572 359.917 294.128 360.057 293.67 360.08Z" fill="white" stroke="#141414" stroke-miterlimit="10"/>
<path d="M428.042 50.3321C428.58 50.3321 428.665 51.0732 428.665 51.5207V279.315C428.594 280.329 428.289 281.313 427.773 282.193C427.258 283.073 426.546 283.824 425.691 284.391L294.605 359.073C294.323 359.249 294.002 359.354 293.67 359.381C293.132 359.381 293.047 358.626 293.047 358.178V130.398C293.118 129.384 293.423 128.4 293.939 127.52C294.454 126.64 295.167 125.889 296.021 125.322L427.107 50.6397C427.386 50.4583 427.708 50.3523 428.042 50.3321ZM428.042 48.9338C427.46 48.953 426.894 49.1217 426.399 49.4232L295.313 124.106C294.24 124.794 293.348 125.722 292.708 126.816C292.068 127.909 291.699 129.137 291.631 130.398V358.178C291.631 359.828 292.466 360.779 293.67 360.779C294.253 360.754 294.819 360.581 295.313 360.276L426.399 285.607C427.471 284.918 428.363 283.99 429.003 282.896C429.642 281.803 430.012 280.576 430.081 279.315V51.5207C430.081 49.8847 429.246 48.9338 428.042 48.9338Z" fill="#37474F" stroke="#141414" stroke-miterlimit="10"/>
<path d="M430.039 51.5207C430.039 49.1995 428.396 48.2627 426.357 49.4233L295.271 124.106C294.198 124.794 293.305 125.722 292.665 126.816C292.025 127.909 291.656 129.137 291.588 130.398V149.065L430.039 70.1878V51.5207Z" fill="#37474F"/>
<path opacity="0.1" d="M430.039 51.5207C430.039 49.1995 428.396 48.2627 426.357 49.4233L295.271 124.106C294.198 124.794 293.305 125.722 292.665 126.816C292.025 127.909 291.656 129.137 291.588 130.398V149.065L430.039 70.1878V51.5207Z" fill="black"/>
<path d="M306.076 128.412C305.843 128.325 305.592 128.296 305.345 128.328C305.098 128.36 304.863 128.451 304.66 128.594C303.932 129.071 303.325 129.708 302.888 130.455C302.451 131.203 302.194 132.039 302.139 132.901C302.104 133.148 302.136 133.401 302.233 133.632C302.331 133.864 302.489 134.065 302.692 134.215C302.924 134.309 303.178 134.341 303.427 134.307C303.675 134.272 303.911 134.173 304.108 134.019C304.832 133.542 305.434 132.906 305.869 132.162C306.304 131.417 306.559 130.584 306.614 129.727C306.652 129.48 306.621 129.228 306.527 128.997C306.432 128.766 306.277 128.564 306.076 128.412Z" fill="white"/>
<path d="M309.064 123.644L308.753 123.826V123.197C308.753 122.316 308.13 121.952 307.337 122.4L301.388 125.784C300.98 126.045 300.638 126.397 300.392 126.813C300.146 127.228 300.003 127.694 299.972 128.175V128.818L299.647 129C299.103 129.348 298.65 129.819 298.325 130.373C298.001 130.927 297.813 131.549 297.777 132.188V137.879C297.777 139.053 298.613 139.543 299.647 138.955L309.036 133.6C309.581 133.249 310.034 132.776 310.359 132.22C310.684 131.663 310.871 131.039 310.906 130.398V124.679C310.934 123.532 310.098 123.057 309.064 123.644ZM304.646 134.942C304.188 135.218 303.666 135.372 303.13 135.39C302.783 135.393 302.442 135.306 302.139 135.138C301.773 134.894 301.479 134.558 301.287 134.165C301.096 133.772 301.013 133.336 301.049 132.901C301.098 131.853 301.401 130.832 301.934 129.925C302.466 129.017 303.212 128.249 304.108 127.685C304.467 127.429 304.891 127.275 305.333 127.241C305.775 127.206 306.218 127.292 306.614 127.489C306.981 127.732 307.275 128.068 307.465 128.462C307.654 128.856 307.732 129.293 307.691 129.727C307.641 130.773 307.338 131.792 306.809 132.699C306.279 133.606 305.537 134.375 304.646 134.942ZM308.894 127.35C308.413 127.615 308.031 127.35 308.031 126.846C308.045 126.549 308.131 126.26 308.281 126.002C308.431 125.744 308.642 125.526 308.894 125.364C309.376 125.084 309.773 125.364 309.773 125.853C309.762 126.148 309.682 126.437 309.539 126.697C309.397 126.956 309.196 127.18 308.951 127.35H308.894Z" fill="white"/>
<path d="M422.504 57.2675L413.341 62.4831C412.81 62.8247 412.368 63.285 412.051 63.8268C411.733 64.3685 411.55 64.9764 411.514 65.6013V71.1944C411.514 72.327 412.336 72.8025 413.341 72.2292L418.794 69.125L420.932 71.2364C420.983 71.2824 421.045 71.313 421.113 71.3246C421.18 71.3361 421.25 71.3281 421.313 71.3014C421.376 71.2748 421.429 71.2307 421.467 71.1745C421.505 71.1182 421.526 71.0523 421.527 70.9847V67.5589L422.504 66.9996C423.043 66.6627 423.494 66.2044 423.819 65.6624C424.144 65.1204 424.334 64.51 424.374 63.8814V58.2883C424.374 57.1557 423.51 56.6942 422.504 57.2675Z" fill="white"/>
<path d="M309.277 145.737C314.064 143.052 317.944 145.234 317.944 150.631C317.772 153.583 316.898 156.453 315.392 159.009C313.886 161.565 311.791 163.734 309.277 165.341C304.476 168.138 300.595 165.886 300.595 160.447C300.756 157.491 301.628 154.615 303.137 152.057C304.647 149.499 306.751 147.333 309.277 145.737Z" fill="#37474F"/>
<path d="M326.527 139.151L355.29 122.763C356.99 121.798 358.363 122.483 358.363 124.287C358.289 125.306 357.971 126.293 357.437 127.167C356.903 128.042 356.168 128.78 355.29 129.321L326.527 145.709C324.841 146.674 323.468 145.988 323.468 144.185C323.542 143.168 323.858 142.182 324.389 141.308C324.92 140.433 325.653 139.694 326.527 139.151Z" fill="#37474F"/>
<g opacity="0.7">
<path opacity="0.7" d="M326.527 139.151L355.29 122.763C356.99 121.798 358.363 122.483 358.363 124.287C358.289 125.306 357.971 126.293 357.437 127.167C356.903 128.042 356.168 128.78 355.29 129.321L326.527 145.709C324.841 146.674 323.468 145.988 323.468 144.185C323.542 143.168 323.858 142.182 324.389 141.308C324.92 140.433 325.653 139.694 326.527 139.151Z" fill="white"/>
</g>
<path d="M325.564 150.771L345.292 139.584C346.453 138.927 347.388 139.389 347.388 140.633C347.337 141.331 347.121 142.007 346.757 142.607C346.393 143.207 345.891 143.714 345.292 144.087L325.564 155.273C324.402 155.93 323.468 155.455 323.468 154.21C323.519 153.515 323.736 152.841 324.1 152.244C324.464 151.646 324.965 151.142 325.564 150.771Z" fill="#37474F"/>
<g opacity="0.7">
<path opacity="0.7" d="M325.564 150.771L345.292 139.584C346.453 138.927 347.388 139.389 347.388 140.633C347.337 141.331 347.121 142.007 346.757 142.607C346.393 143.207 345.891 143.714 345.292 144.087L325.564 155.273C324.402 155.93 323.468 155.455 323.468 154.21C323.519 153.515 323.736 152.841 324.1 152.244C324.464 151.646 324.965 151.142 325.564 150.771Z" fill="white"/>
</g>
<path d="M309.277 292.752C314.064 290.068 317.944 292.263 317.944 297.646C317.772 300.598 316.898 303.469 315.392 306.025C313.886 308.58 311.791 310.75 309.277 312.356C304.476 315.153 300.595 312.902 300.595 307.462C300.76 304.507 301.633 301.632 303.142 299.075C304.651 296.518 306.754 294.351 309.277 292.752Z" fill="#37474F"/>
<path d="M326.527 286.181L355.29 269.779C356.99 268.814 358.363 269.499 358.363 271.303C358.289 272.321 357.971 273.308 357.437 274.183C356.903 275.058 356.168 275.796 355.29 276.337L326.527 292.739C324.841 293.703 323.468 293.018 323.468 291.2C323.544 290.186 323.861 289.203 324.392 288.331C324.923 287.459 325.654 286.723 326.527 286.181Z" fill="#37474F"/>
<g opacity="0.7">
<path opacity="0.7" d="M326.527 286.181L355.29 269.779C356.99 268.814 358.363 269.499 358.363 271.303C358.289 272.321 357.971 273.308 357.437 274.183C356.903 275.058 356.168 275.796 355.29 276.337L326.527 292.739C324.841 293.703 323.468 293.018 323.468 291.2C323.544 290.186 323.861 289.203 324.392 288.331C324.923 287.459 325.654 286.723 326.527 286.181Z" fill="white"/>
</g>
<path d="M325.564 297.786L345.292 286.6C346.453 285.943 347.388 286.404 347.388 287.649C347.337 288.346 347.121 289.023 346.757 289.622C346.393 290.222 345.891 290.729 345.292 291.103L325.564 302.289C324.402 302.946 323.468 302.471 323.468 301.24C323.517 300.542 323.733 299.866 324.097 299.266C324.461 298.665 324.964 298.159 325.564 297.786Z" fill="#37474F"/>
<g opacity="0.7">
<path opacity="0.7" d="M325.564 297.786L345.292 286.6C346.453 285.943 347.388 286.404 347.388 287.649C347.337 288.346 347.121 289.023 346.757 289.622C346.393 290.222 345.891 290.729 345.292 291.103L325.564 302.289C324.402 302.946 323.468 302.471 323.468 301.24C323.517 300.542 323.733 299.866 324.097 299.266C324.461 298.665 324.964 298.159 325.564 297.786Z" fill="white"/>
</g>
<path d="M306.586 173.479L415.508 111.395C417.208 110.43 418.581 111.213 418.581 113.143V220.545C418.524 221.598 418.215 222.623 417.681 223.537C417.147 224.45 416.403 225.226 415.508 225.803L306.586 288.25C304.887 289.215 303.527 288.432 303.527 286.502V178.722C303.582 177.672 303.888 176.65 304.42 175.738C304.951 174.827 305.694 174.053 306.586 173.479Z" fill="#F5F5F5"/>
<path d="M346.566 198.075C346.288 197.672 345.904 197.353 345.455 197.15C345.006 196.948 344.51 196.871 344.02 196.927C343.53 196.983 343.065 197.171 342.675 197.469C342.285 197.767 341.985 198.165 341.808 198.62L303.57 270.324V286.502C303.57 288.432 304.986 289.215 306.629 288.25L415.551 226.124C416.445 225.548 417.19 224.772 417.724 223.858C418.258 222.945 418.566 221.92 418.624 220.867V185.071L397.933 148.785C396.786 146.758 395.185 146.884 394.35 149.051L366.804 221.132L346.566 198.075Z" fill="#37474F"/>
<g opacity="0.3">
<path opacity="0.3" d="M346.566 198.075C346.288 197.672 345.904 197.353 345.455 197.15C345.006 196.948 344.51 196.871 344.02 196.927C343.53 196.983 343.065 197.171 342.675 197.469C342.285 197.767 341.985 198.165 341.808 198.62L303.57 270.324V286.502C303.57 288.432 304.986 289.215 306.629 288.25L415.551 226.124C416.445 225.548 417.19 224.772 417.724 223.858C418.258 222.945 418.566 221.92 418.624 220.867V185.071L397.933 148.785C396.786 146.758 395.185 146.884 394.35 149.051L366.804 221.132L346.566 198.075Z" fill="#00564C"/>
</g>
<path d="M315.013 202.535C324.615 197.096 332.418 183.84 332.418 172.934C332.418 167.34 330.379 163.509 327.136 161.747L306.586 173.451C305.694 174.025 304.951 174.799 304.42 175.71C303.888 176.622 303.582 177.644 303.527 178.694V204.059C306.586 205.416 310.594 204.996 315.013 202.535Z" fill="#37474F"/>
<g opacity="0.6">
<path opacity="0.6" d="M315.013 202.535C324.615 197.096 332.418 183.84 332.418 172.934C332.418 167.34 330.379 163.509 327.136 161.747L306.586 173.451C305.694 174.025 304.951 174.799 304.42 175.71C303.888 176.622 303.582 177.644 303.527 178.694V204.059C306.586 205.416 310.594 204.996 315.013 202.535Z" fill="white"/>
</g>
<path d="M306.586 321.054L415.508 258.956C417.208 257.991 418.581 258.676 418.581 260.494C418.504 261.51 418.186 262.494 417.652 263.367C417.118 264.239 416.384 264.974 415.508 265.514L306.586 327.612C304.887 328.577 303.527 327.891 303.527 326.074C303.599 325.058 303.914 324.073 304.446 323.201C304.977 322.328 305.711 321.593 306.586 321.054Z" fill="#37474F"/>
<g opacity="0.6">
<path opacity="0.6" d="M306.586 321.054L415.508 258.956C417.208 257.991 418.581 258.676 418.581 260.494C418.504 261.51 418.186 262.494 417.652 263.367C417.118 264.239 416.384 264.974 415.508 265.514L306.586 327.612C304.887 328.577 303.527 327.891 303.527 326.074C303.599 325.058 303.914 324.073 304.446 323.201C304.977 322.328 305.711 321.593 306.586 321.054Z" fill="white"/>
</g>
<path d="M306.586 334.17L415.508 272.114C417.208 271.149 418.581 271.834 418.581 273.652C418.504 274.668 418.186 275.652 417.652 276.524C417.118 277.396 416.384 278.132 415.508 278.672L306.586 340.77C304.887 341.734 303.527 341.049 303.527 339.231C303.594 338.209 303.906 337.216 304.438 336.336C304.97 335.456 305.706 334.713 306.586 334.17Z" fill="#37474F"/>
<g opacity="0.6">
<path opacity="0.6" d="M306.586 334.17L415.508 272.114C417.208 271.149 418.581 271.834 418.581 273.652C418.504 274.668 418.186 275.652 417.652 276.524C417.118 277.396 416.384 278.132 415.508 278.672L306.586 340.77C304.887 341.734 303.527 341.049 303.527 339.231C303.594 338.209 303.906 337.216 304.438 336.336C304.97 335.456 305.706 334.713 306.586 334.17Z" fill="white"/>
</g>
<path d="M323.382 115.017L401.091 70.761C403.47 69.3627 405.339 70.5093 405.339 73.208C405.266 74.6734 404.843 76.1009 404.104 77.3742C403.366 78.6475 402.334 79.7305 401.091 80.535L323.397 124.665C321.017 126.063 319.148 124.944 319.148 122.288C319.229 120.833 319.654 119.418 320.389 118.155C321.125 116.892 322.15 115.817 323.382 115.017Z" fill="#FAFAFA"/>
<path d="M551.692 198.956L557.201 208.925L548.633 216.182L540.773 203.891L551.692 198.956Z" fill="#F28F8F"/>
<path d="M531.016 176.737C536.482 176.737 542.501 178.75 544.569 182.987L553.066 200.382C553.066 200.382 548.237 207.373 540.575 206.87L531.016 176.737Z" fill="#E0E0E0"/>
<path d="M551.267 210.477C552.868 207.541 553.264 207.401 554.213 206.758C555.162 206.115 560.997 205.262 563.419 205.052C566.251 204.814 567.285 205.332 566.492 207.751C564.31 213.852 561.639 219.771 558.504 225.453C557.739 226.446 557.598 227.369 554.383 227.69C551.395 227.97 547.642 228.138 546.537 228.194C545.433 228.25 543.903 228.543 544.88 225.327C546.145 221.694 547.61 218.133 549.27 214.658C550.503 211.988 551.267 210.477 551.267 210.477Z" fill="#37474F"/>
<path d="M487.452 309.406C486.036 308.707 485.229 310.412 483.997 311.783C482.939 312.791 482.113 314.011 481.575 315.362C481.278 316.97 482.765 319.557 484.407 320.956C486.05 322.354 487.948 323.375 488.543 326.451C488.696 327.862 489.251 329.202 490.143 330.316C491.035 331.429 492.228 332.271 493.585 332.743C497.125 334.253 501.87 333.764 503.498 332.743C505.396 331.527 503.654 330.184 500.991 326.409C497.508 321.487 494.788 318.019 494.788 313.363L487.452 309.406Z" fill="#263238"/>
<path d="M490.243 305.365L487.41 309.56C486.799 310.417 486.557 311.478 486.738 312.511C486.918 313.544 487.506 314.464 488.373 315.069L488.458 315.139C489.329 315.649 490.354 315.843 491.354 315.688C492.355 315.532 493.269 315.036 493.939 314.286L498.414 309.476L490.243 305.365Z" fill="#FFA8A7"/>
<path d="M542.841 224.488C543.025 229.774 541.51 251.125 537.813 260.564C534.117 270.002 531.978 275.875 530.817 277.847C529.656 279.818 496.148 312.007 496.148 312.007C496.148 312.007 490.483 311.601 489.562 306.162C489.562 306.162 503.286 283.118 506.26 278.392C509.234 273.666 519.771 266.423 519.771 266.423L518.808 225.089L542.841 224.488Z" fill="#37474F"/>
<path d="M493.202 219.342C493.202 218.433 496.035 207.988 497.451 203.164L507.832 206.688L505.396 214.295L496.261 223.621C495.293 223.431 494.436 222.881 493.867 222.084C493.298 221.288 493.06 220.307 493.202 219.342Z" fill="#FFA8A7"/>
<path d="M535.459 336.975L542.544 335.385L540.198 325.2L533.114 326.79L535.459 336.975Z" fill="#FFA8A7"/>
<path d="M542.841 224.488H508.852C508.109 229.388 507.683 234.329 507.577 239.282C507.308 253.824 521.017 280.238 521.017 280.238C520.359 286.115 520.656 292.057 521.895 297.842C524.897 309.42 533.083 329.038 533.083 329.038C533.083 329.038 538.224 329.751 540.759 326.829C540.759 326.829 536.227 287.019 535.009 276.826C533.692 265.779 530.293 245.63 530.293 245.63C532.537 243.423 534.57 241.017 536.369 238.443C539.521 234.299 541.725 229.528 542.827 224.46" fill="#37474F"/>
<path d="M519.799 177.03C513.284 178.582 504.405 180.596 501.841 187.559C499.278 194.523 495.582 206.87 495.582 206.87C496.998 209.317 504.858 211.344 507.591 209.932L508.866 205.737V224.446C513.964 229.927 531.724 232.472 542.855 224.446V189.489C542.855 183.896 539.711 177.184 531.03 176.695L519.799 177.03Z" fill="#11B5E4"/>
<path d="M508.865 205.779L512.137 195.614L508.865 210.324V205.779Z" fill="#E0E0E0"/>
<path d="M517.349 148.463C516.765 148.399 516.173 148.466 515.619 148.66C515.064 148.854 514.562 149.169 514.148 149.582C512.732 150.98 513.058 153.539 514.148 159.454L518.397 159.929L517.349 148.463Z" fill="#263238"/>
<path d="M542.147 146.757C543.04 146.767 543.926 146.6 544.753 146.268C546.056 145.527 546.396 146.995 545.674 148.268C545.202 149.179 544.501 149.956 543.638 150.524C542.775 151.092 541.779 151.432 540.745 151.512C540.745 151.33 539.527 148.226 539.527 148.226L542.147 146.757Z" fill="#263238"/>
<path d="M519.346 159.929C518.723 160.307 517.816 159.104 517.037 158.307C516.733 157.96 516.343 157.695 515.906 157.538C515.468 157.381 514.997 157.337 514.538 157.409C514.078 157.482 513.645 157.67 513.28 157.954C512.914 158.238 512.628 158.61 512.449 159.034C511.16 161.719 514.091 165.299 515.819 166.473C516.298 166.887 516.898 167.14 517.532 167.195C518.165 167.25 518.801 167.105 519.346 166.781L519.799 177.058C520.562 178.705 521.726 180.139 523.186 181.234C524.646 182.33 526.358 183.052 528.169 183.337C534.287 184.148 533.026 179.142 531.001 176.737V173.003C532.532 173.322 534.105 173.398 535.661 173.227C536.454 173.017 538.351 170.752 539.584 168.207C542.196 163.112 542.777 157.234 541.212 151.735C539.017 142.535 529.004 142.255 523.042 145.96C517.08 149.666 519.346 159.929 519.346 159.929Z" fill="#FFA8A7"/>
<path d="M519.346 160.978C519.034 160.978 517.83 159.007 517.037 158.307C515.947 157.329 517.349 148.519 517.349 148.519C517.048 147.573 516.988 146.567 517.173 145.592C517.358 144.617 517.783 143.701 518.411 142.926C520.564 140.689 524.727 141.067 527.772 140.969C531.519 140.983 535.229 140.246 538.677 138.801C543.011 136.942 543.337 136.732 543.861 138.606C544.279 140.154 544.331 141.777 544.012 143.348C543.693 144.92 543.011 146.397 542.02 147.666L540.603 149.932C540.603 149.932 539.286 151.022 535.25 151.512C531.214 152.001 524.331 149.848 523.467 149.736C522.292 149.582 522.051 150.701 521.413 153.763C520.875 156.406 520.422 160.964 519.346 160.978Z" fill="#263238"/>
<path d="M517.363 149.163L513.539 147.135C513.662 146.889 513.832 146.668 514.041 146.487C514.249 146.306 514.492 146.167 514.755 146.078C515.019 145.99 515.297 145.954 515.574 145.972C515.852 145.99 516.123 146.062 516.372 146.184C516.897 146.456 517.294 146.919 517.479 147.475C517.664 148.031 517.622 148.636 517.363 149.163Z" fill="#263238"/>
<path d="M531.001 173.003C528.396 172.51 525.841 171.785 523.368 170.836C522.209 170.232 521.258 169.303 520.635 168.165C520.933 169.307 521.463 170.377 522.192 171.311C523.609 173.143 531.001 174.485 531.001 174.485V173.003Z" fill="#F28F8F"/>
<path d="M531.186 159.734C531.189 160.035 531.073 160.326 530.86 160.544C530.648 160.761 530.358 160.887 530.053 160.894C529.9 160.891 529.75 160.857 529.61 160.796C529.471 160.735 529.345 160.648 529.24 160.539C529.134 160.43 529.052 160.301 528.997 160.161C528.942 160.02 528.916 159.87 528.92 159.72C528.916 159.418 529.033 159.127 529.245 158.91C529.457 158.692 529.747 158.566 530.053 158.559C530.205 158.563 530.355 158.596 530.495 158.657C530.634 158.718 530.76 158.806 530.865 158.915C530.971 159.024 531.053 159.152 531.108 159.293C531.163 159.433 531.189 159.583 531.186 159.734Z" fill="#263238"/>
<path d="M529.982 155.497L527.56 156.895C527.468 156.733 527.41 156.554 527.388 156.37C527.367 156.185 527.383 155.998 527.436 155.82C527.489 155.641 527.577 155.475 527.696 155.331C527.814 155.187 527.961 155.067 528.126 154.979C528.445 154.818 528.813 154.782 529.157 154.878C529.501 154.974 529.796 155.195 529.982 155.497Z" fill="#263238"/>
<path d="M530.492 167.242L533.083 168.207C532.955 168.543 532.702 168.817 532.375 168.973C532.048 169.129 531.673 169.155 531.327 169.046C531.152 168.982 530.991 168.885 530.854 168.76C530.718 168.634 530.607 168.484 530.529 168.316C530.452 168.148 530.408 167.967 530.402 167.783C530.395 167.599 530.426 167.415 530.492 167.242Z" fill="#F28F8F"/>
<path d="M541.297 156.434L539.088 154.756C539.31 154.473 539.634 154.284 539.992 154.23C540.35 154.175 540.716 154.258 541.014 154.462C541.165 154.572 541.292 154.711 541.388 154.87C541.484 155.029 541.547 155.206 541.573 155.389C541.6 155.573 541.589 155.76 541.542 155.939C541.494 156.118 541.411 156.286 541.297 156.434Z" fill="#263238"/>
<path d="M540.618 159.412C540.621 159.714 540.505 160.005 540.293 160.222C540.08 160.439 539.79 160.565 539.485 160.573C539.332 160.569 539.182 160.536 539.042 160.475C538.903 160.414 538.777 160.326 538.672 160.217C538.566 160.108 538.484 159.979 538.429 159.839C538.374 159.698 538.348 159.549 538.352 159.398C538.348 159.096 538.465 158.805 538.677 158.588C538.889 158.371 539.179 158.245 539.485 158.237C539.791 158.248 540.082 158.377 540.293 158.597C540.505 158.816 540.621 159.109 540.618 159.412Z" fill="#263238"/>
<path d="M535.278 159.272L534.216 165.928L537.941 165.495L535.278 159.272Z" fill="#F28F8F"/>
<path d="M541.736 331.988L541.51 330.981C542.246 331.121 545.433 336.337 548.591 338.602C552.047 341.077 555.035 342.545 556.579 343.664C558.646 345.16 555.658 348.222 550.574 348.502C548.053 348.628 543.493 347.873 542.076 346.544C540.66 345.216 539.64 343.02 538.507 342.07C537.374 341.119 535.123 340.28 534.344 339.063C533.927 337.855 533.777 336.572 533.905 335.302C533.905 333.988 534.004 332.505 534.457 332.575L534.627 333.33C535.94 333.992 537.402 334.314 538.876 334.267C540.108 334.211 542.331 333.946 541.736 331.988Z" fill="#263238"/>
<path d="M534.131 270.058C534.131 270.058 531.115 248.902 530.307 245.63C532.731 244.324 534.985 242.732 537.02 240.89C535.616 242.873 534.083 244.765 532.432 246.553L534.131 270.058Z" fill="#263238"/>
<path d="M515.933 269.317C515.933 269.317 519.558 278.224 521.031 280.196C521.031 280.196 520.663 286.991 520.705 288.362L518.808 289.998C518.758 286.923 519.043 283.853 519.657 280.839C517.992 277.144 516.743 273.281 515.933 269.317Z" fill="#263238"/>
<path d="M505.438 214.295C505.438 214.295 534.004 217.315 537.36 216.294C540.717 215.274 545.22 211.988 547.585 210.589C549.95 209.191 551.749 209.107 551.749 209.68C551.749 210.254 549.681 213.372 549.214 214.672C548.747 215.973 551.437 215.973 554.992 215.162C558.547 214.351 559.963 212.365 560.884 213.512C561.804 214.658 558.915 220.503 553.024 222.698C547.132 224.894 542.756 223.426 537.884 223.635C533.012 223.845 503.002 225.733 496.247 223.635C496.068 222.566 496.192 221.469 496.604 220.465C497.017 219.461 497.702 218.589 498.584 217.944C500.625 216.327 502.948 215.09 505.438 214.295Z" fill="#FFA8A7"/>
<path d="M347.076 349.019C347.147 348.11 348.889 338.322 350.078 332.841L361.734 336.365L359.865 344.041L350.178 353.298C349.202 353.117 348.334 352.571 347.756 351.773C347.179 350.976 346.935 349.989 347.076 349.019Z" fill="#FFA8A7"/>
<path d="M372.625 266.157H378.29C382.47 266.157 386.479 267.796 389.435 270.715C392.392 273.634 394.052 277.592 394.052 281.72V321.375H356.862V281.72C356.862 277.592 358.523 273.634 361.479 270.715C364.435 267.796 368.444 266.157 372.625 266.157Z" fill="#263238"/>
<path d="M403.456 328.45L408.965 338.42L400.383 345.663L392.537 333.372L403.456 328.45Z" fill="#F28F8F"/>
<path d="M382.779 306.218C388.246 306.218 394.265 308.231 396.332 312.468L404.83 329.862C404.83 329.862 400 336.854 392.339 336.365L382.779 306.218Z" fill="#455A64"/>
<path d="M387.198 478.724C389.079 481.208 391.194 483.512 393.514 485.603C393.887 485.899 394.183 486.277 394.378 486.708C394.619 487.435 394.93 489.183 391.659 489.896C390 490.255 388.283 490.257 386.624 489.903C384.965 489.548 383.402 488.845 382.043 487.841C379.649 485.939 379.932 482.597 377.723 480.402C376.08 478.794 373.857 478.164 372.625 476.207C371.761 474.809 372.228 473.145 373.007 471.089C373.786 469.034 374.338 467.16 375.089 467.426L374.834 468.46C375.613 470.096 380.499 471.131 382.892 470.348C384.18 473.211 385.617 476.007 387.198 478.724Z" fill="#263238"/>
<path d="M389.124 481.129C388.458 480.36 387.807 479.577 387.198 478.724C385.945 476.665 384.824 474.531 383.841 472.334C383.203 471.025 383.092 469.526 383.53 468.139L385.144 462.755L376.647 460.826L374.806 468.363C374.409 470.082 375.67 471.788 377.978 474.277C380.287 476.766 382.949 482.248 385.059 483.8C387.17 485.352 388.897 485.506 389.974 484.974C391.05 484.443 391.319 483.953 389.124 481.129Z" fill="#FFA8A7"/>
<path d="M364.34 483.464V482.275C364.821 483.674 367.002 489.63 370.316 492.623C372.965 494.986 376.562 497.74 377.468 500.383C378.375 503.026 372.469 504.061 370.005 503.627C366.717 503.083 363.701 501.486 361.422 499.083C360.006 497.363 359.1 495.321 358.08 493.965C357.061 492.609 354.738 491.169 354.2 489.546C354.029 488.085 354.189 486.605 354.667 485.212C355.064 483.814 355.474 482.15 355.984 482.275V483.254C357.197 484.187 358.696 484.68 360.233 484.653C361.394 484.653 364.354 484.387 364.34 483.464Z" fill="#263238"/>
<path d="M372.71 494.706L370.317 492.609C368.097 490.287 366.364 487.554 365.218 484.569C364.638 483.19 364.34 481.713 364.34 480.22V475.508H355.984V483.17V483.38C356.381 485.1 360.233 489.658 362.4 492.637C364.177 495.196 366.886 496.98 369.963 497.615C373.149 498.034 374.806 497.055 372.71 494.706Z" fill="#FFA8A7"/>
<path d="M357.641 355.158C351.169 369.14 357.882 418.374 357.882 418.374C357.684 420.653 355.049 425.114 354.086 435.153C352.925 446.955 355.899 476.571 355.899 476.571C357.178 477.312 358.623 477.73 360.105 477.789C361.587 477.847 363.061 477.544 364.397 476.906C364.397 476.906 372.37 432.287 373.871 420.555L378.658 382.913L385.739 419.646C383.844 422.525 382.277 425.601 381.066 428.819C379.38 434.007 375.967 463.567 375.967 463.567C377.119 464.606 378.496 465.372 379.993 465.806C381.49 466.24 383.068 466.33 384.606 466.069C384.606 466.069 400.964 425.519 401.7 417.241C402.139 412.277 394.803 353.172 394.803 353.172L357.641 355.158Z" fill="#37474F"/>
<path d="M378.601 382.858L379.734 374.775C379.734 374.775 388.642 372.958 392.679 369.182C389.892 372.408 386.247 374.8 382.156 376.09L380.966 383.892L382.383 401.972L378.601 382.858Z" fill="#263238"/>
<path d="M369.141 306.595C366.756 307.168 364.532 308.262 362.632 309.796C360.733 311.33 359.206 313.266 358.165 315.46C356.636 318.797 356.494 322.592 357.768 326.031L363.476 342.573C363.476 342.573 360.771 349.047 357.613 355.157C372.157 363.17 390.299 358.961 394.675 353.116C394.859 351.871 394.605 346.278 394.959 339.93C395.327 333.148 396.276 325.486 395.199 321.305C393.188 313.517 389.435 306.218 381.972 306.218L369.141 306.595Z" fill="#F03E3D"/>
<path d="M366.917 306.595C361.961 307.28 354.681 308.273 352.16 319.907C349.64 331.541 348.889 335.805 348.889 335.805C350.505 337.371 352.431 338.592 354.546 339.39C356.661 340.189 358.92 340.549 361.182 340.448L363.745 331.499L366.917 306.595Z" fill="#455A64"/>
<path d="M369.736 316.411C368.88 316.411 368.033 316.245 367.243 315.922C366.452 315.598 365.734 315.125 365.129 314.527C364.524 313.93 364.044 313.221 363.717 312.441C363.389 311.66 363.221 310.824 363.221 309.979V291.256H369.736V316.411Z" fill="#263238"/>
<path d="M387.948 273.582C389.917 274.728 392.339 279.608 392.098 289.83C391.9 298.499 389.053 300.652 387.623 301.268C386.192 301.883 383.445 301.505 380.768 301.058V306.259C380.768 306.259 384.464 310.454 384.238 312.901C384.011 315.348 378.884 315.852 375.415 313.517C373.18 311.916 371.26 309.926 369.75 307.644V295.059C369.468 295.4 369.12 295.682 368.726 295.89C368.333 296.097 367.902 296.225 367.458 296.267C367.014 296.308 366.566 296.263 366.14 296.132C365.715 296.002 365.319 295.789 364.977 295.507C362.017 293.563 361.904 288.767 363.632 287.117C365.359 285.467 369.056 285.942 369.75 288.319C373.25 288.168 376.657 287.159 379.663 285.383C381.892 284.205 383.806 282.52 385.246 280.468C386.687 278.416 387.613 276.056 387.948 273.582Z" fill="#FFA8A7"/>
<path d="M382.298 287.662C382.3 287.876 382.239 288.086 382.122 288.266C382.004 288.446 381.836 288.587 381.638 288.673C381.439 288.759 381.22 288.786 381.006 288.75C380.793 288.714 380.595 288.616 380.437 288.47C380.279 288.324 380.168 288.135 380.118 287.927C380.068 287.718 380.081 287.5 380.156 287.3C380.23 287.099 380.363 286.924 380.537 286.797C380.712 286.67 380.92 286.597 381.136 286.586C381.284 286.58 381.432 286.604 381.571 286.655C381.71 286.706 381.837 286.784 381.945 286.884C382.053 286.984 382.14 287.105 382.2 287.238C382.261 287.372 382.294 287.516 382.298 287.662Z" fill="#263238"/>
<path d="M382.595 295.003L385.158 295.814C385.113 295.985 385.033 296.144 384.923 296.283C384.814 296.422 384.676 296.537 384.52 296.622C384.364 296.707 384.192 296.76 384.014 296.778C383.837 296.795 383.657 296.776 383.487 296.723C383.143 296.605 382.858 296.36 382.692 296.04C382.526 295.72 382.491 295.348 382.595 295.003Z" fill="#F28F8F"/>
<path d="M391.347 284.306L389.124 282.782C389.217 282.633 389.34 282.505 389.485 282.404C389.631 282.304 389.795 282.234 389.969 282.199C390.143 282.163 390.322 282.163 390.496 282.199C390.669 282.234 390.834 282.304 390.979 282.405C391.277 282.614 391.482 282.928 391.55 283.282C391.619 283.637 391.546 284.004 391.347 284.306Z" fill="#263238"/>
<path d="M390.837 286.865C390.857 287.16 390.758 287.45 390.561 287.673C390.365 287.895 390.088 288.032 389.789 288.054C389.492 288.058 389.205 287.948 388.989 287.747C388.772 287.546 388.643 287.27 388.628 286.977C388.621 286.834 388.642 286.691 388.691 286.556C388.739 286.42 388.814 286.296 388.912 286.19C389.009 286.083 389.127 285.997 389.258 285.935C389.389 285.873 389.531 285.838 389.676 285.831C389.821 285.823 389.966 285.844 390.103 285.892C390.24 285.94 390.366 286.014 390.474 286.111C390.582 286.207 390.669 286.323 390.732 286.452C390.794 286.582 390.83 286.722 390.837 286.865Z" fill="#263238"/>
<path d="M385.626 286.25L385.81 292.808L389.308 291.731L385.626 286.25Z" fill="#F28F8F"/>
<path d="M380.768 301.058C377.936 300.694 372.129 299.044 371.223 296.779C371.584 297.929 372.296 298.94 373.262 299.674C374.99 301.142 380.768 302.806 380.768 302.806V301.058Z" fill="#F28F8F"/>
<path d="M403.017 339.958C404.617 337.022 405.014 336.896 405.977 336.253C406.94 335.609 412.761 334.743 415.183 334.533C418.015 334.295 419.049 334.812 418.256 337.245C416.048 343.34 413.358 349.255 410.212 354.934C409.447 355.941 409.291 356.863 406.09 357.171C402.89 357.479 399.335 357.618 398.23 357.688C397.126 357.758 395.596 358.024 396.587 354.808C397.85 351.176 399.311 347.615 400.964 344.139C402.252 341.496 403.017 339.958 403.017 339.958Z" fill="#37474F"/>
<path d="M359.864 344.097C359.864 344.097 385.767 346.796 389.124 345.775C392.48 344.754 396.984 341.44 399.406 340.07C401.827 338.7 403.569 338.588 403.569 339.147C403.569 339.707 401.502 342.853 401.02 344.139C400.539 345.426 403.258 345.439 406.798 344.628C410.339 343.817 411.769 341.832 412.704 342.979C413.639 344.125 410.735 349.97 404.844 352.165C398.952 354.361 394.576 352.906 389.704 353.102C384.833 353.298 356.933 355.451 350.177 353.354C349.999 352.285 350.122 351.188 350.535 350.184C350.947 349.179 351.632 348.307 352.514 347.663C354.699 346.002 357.198 344.789 359.864 344.097Z" fill="#FFA8A7"/>
<path d="M361.734 337.525C362.845 334.554 363.791 331.524 364.566 328.45C364.566 328.45 364.099 335.204 362.173 338.826L361.734 337.525Z" fill="#37474F"/>
<path d="M152.147 254.369L147.544 264.185L156.112 271.429L163.519 259.082L152.147 254.369Z" fill="#F28F8F"/>
<path d="M173.277 231.913C167.81 231.913 161.791 233.941 159.724 238.164C157.656 242.386 151.226 255.572 151.226 255.572C151.226 255.572 156.056 262.564 163.717 262.06L173.277 231.913Z" fill="#37474F"/>
<path d="M196.985 387.668H189.422V398.532H196.985V387.668Z" fill="#FFA8A7"/>
<path d="M170.395 374.225L162.837 374.482L163.215 385.34L170.774 385.084L170.395 374.225Z" fill="#FFA8A7"/>
<path d="M196.475 281.594C196.475 288.725 197.409 334.813 197.409 334.813C197.593 336.854 199.534 340.644 199.109 348.516C198.542 359.213 197.608 388.926 197.608 388.926C197.608 388.926 194.067 392.394 189.11 388.926C189.11 388.926 182.256 348.544 180.91 337.945C179.721 328.702 177.724 303.575 177.724 303.575L170.713 333.149C170.713 333.149 171.945 340.14 172.229 345.006C172.512 349.872 170.94 378.271 170.94 378.271C169.715 379.026 168.311 379.452 166.867 379.506C165.424 379.56 163.991 379.24 162.712 378.579C162.712 378.579 156.65 337.162 155.871 332.729C155.092 328.297 161.182 281.594 161.182 281.594H196.475Z" fill="#37474F"/>
<path d="M185.102 232.249H185.216C188.46 233.054 191.338 234.908 193.391 237.516C195.444 240.123 196.555 243.334 196.545 246.637V281.594C191.249 287.285 172.781 289.984 161.14 281.594V245.239C161.14 239.436 164.411 232.444 173.433 231.927L185.102 232.249Z" fill="#02897A"/>
<path d="M187.652 202.507C188.259 202.44 188.874 202.51 189.45 202.711C190.027 202.912 190.55 203.239 190.98 203.668C192.396 205.066 192.113 207.793 190.98 213.931L186.561 214.435L187.652 202.507Z" fill="#263238"/>
<path d="M161.862 200.801C160.914 200.804 159.975 200.619 159.1 200.256C157.684 199.487 157.387 201.011 158.123 202.325C158.617 203.274 159.348 204.082 160.248 204.672C161.149 205.262 162.187 205.615 163.264 205.695C163.264 205.514 164.525 202.298 164.525 202.298L161.862 200.801Z" fill="#263238"/>
<path d="M185.57 214.435C186.235 214.826 187.17 213.582 187.977 212.743C188.294 212.379 188.699 212.102 189.156 211.937C189.612 211.773 190.103 211.727 190.582 211.805C191.061 211.882 191.512 212.08 191.892 212.378C192.272 212.677 192.567 213.068 192.75 213.512C194.166 216.308 191.036 220.028 189.252 221.244C188.751 221.675 188.125 221.938 187.464 221.996C186.802 222.054 186.139 221.903 185.57 221.566L185.102 232.249C184.309 233.963 183.099 235.456 181.579 236.595C180.059 237.735 178.277 238.485 176.393 238.779C170.034 239.632 171.351 234.458 173.433 231.913V228.026C171.847 228.366 170.216 228.451 168.603 228.278C167.768 228.054 165.771 225.691 164.51 223.048C163.094 220.084 160.701 214.826 162.825 205.919C165.105 196.341 175.571 196.047 181.718 199.906C187.864 203.766 185.57 214.435 185.57 214.435Z" fill="#FFA8A7"/>
<path d="M185.57 215.525C185.91 215.525 187.156 213.484 187.977 212.729C189.11 211.708 187.652 202.493 187.652 202.493C187.652 202.493 188.799 199.012 186.561 196.69C184.323 194.369 179.976 194.761 176.803 194.649C172.91 194.672 169.054 193.906 165.473 192.398C160.97 190.468 160.63 190.244 160.078 192.188C159.641 193.798 159.586 195.486 159.917 197.121C160.249 198.755 160.958 200.292 161.989 201.612L164.227 202.423C164.227 202.423 165.431 203.486 169.637 203.989C173.516 204.273 177.413 204.203 181.279 203.78C182.496 203.612 182.695 204.772 183.417 207.975C183.983 210.771 184.465 215.511 185.57 215.525Z" fill="#263238"/>
<path d="M187.637 203.234L191.617 201.123C191.491 200.859 191.311 200.623 191.09 200.429C190.868 200.236 190.609 200.089 190.329 199.997C190.048 199.906 189.751 199.872 189.456 199.897C189.162 199.922 188.875 200.006 188.615 200.144C188.081 200.437 187.683 200.921 187.501 201.497C187.319 202.072 187.368 202.694 187.637 203.234Z" fill="#263238"/>
<path d="M173.447 228.026C176.161 227.523 178.821 226.769 181.392 225.775C182.602 225.148 183.59 224.173 184.224 222.978C183.915 224.165 183.366 225.278 182.61 226.25C181.109 228.152 173.433 229.55 173.433 229.55L173.447 228.026Z" fill="#F28F8F"/>
<path d="M174.863 212.98C174.869 213.212 174.943 213.437 175.078 213.627C175.213 213.816 175.401 213.962 175.62 214.047C175.839 214.131 176.078 214.149 176.307 214.1C176.536 214.05 176.745 213.935 176.908 213.768C177.071 213.601 177.181 213.391 177.223 213.163C177.265 212.935 177.238 212.7 177.145 212.487C177.052 212.274 176.897 212.093 176.7 211.967C176.503 211.841 176.273 211.775 176.038 211.778C175.722 211.785 175.421 211.916 175.201 212.141C174.98 212.366 174.859 212.668 174.863 212.98Z" fill="#263238"/>
<path d="M176.109 208.59L178.644 209.988C178.82 209.645 178.856 209.248 178.746 208.879C178.635 208.51 178.386 208.196 178.05 208.003C177.884 207.913 177.701 207.857 177.513 207.838C177.325 207.819 177.135 207.837 176.954 207.892C176.773 207.947 176.605 208.037 176.46 208.157C176.315 208.276 176.196 208.424 176.109 208.59Z" fill="#263238"/>
<path d="M174.948 220.88L172.257 221.887C172.316 222.065 172.41 222.23 172.535 222.371C172.659 222.512 172.811 222.627 172.982 222.709C173.152 222.792 173.338 222.839 173.527 222.849C173.716 222.859 173.906 222.832 174.084 222.768C174.449 222.627 174.744 222.351 174.905 221.998C175.067 221.645 175.082 221.244 174.948 220.88Z" fill="#F28F8F"/>
<path d="M164.341 209.555L166.621 207.793C166.511 207.64 166.371 207.51 166.21 207.411C166.049 207.313 165.869 207.247 165.681 207.218C165.494 207.19 165.302 207.198 165.118 207.244C164.934 207.29 164.761 207.372 164.61 207.485C164.304 207.73 164.105 208.081 164.055 208.467C164.005 208.852 164.107 209.242 164.341 209.555Z" fill="#263238"/>
<path d="M165.048 212.659C165.045 212.972 165.166 213.273 165.386 213.498C165.606 213.724 165.907 213.854 166.224 213.861C166.544 213.854 166.849 213.722 167.072 213.494C167.295 213.267 167.417 212.961 167.414 212.645C167.432 212.481 167.415 212.315 167.364 212.158C167.313 212 167.228 211.856 167.117 211.733C167.005 211.61 166.869 211.512 166.716 211.444C166.563 211.377 166.398 211.342 166.231 211.342C166.064 211.342 165.899 211.377 165.746 211.444C165.593 211.512 165.457 211.61 165.345 211.733C165.234 211.856 165.15 212 165.098 212.158C165.047 212.315 165.03 212.481 165.048 212.645V212.659Z" fill="#263238"/>
<path d="M171.068 211.554L170.671 218.559L166.975 217.315L171.068 211.554Z" fill="#F28F8F"/>
<path d="M189.422 394.841V393.764C188.7 394.072 187.014 400.406 184.026 403.105C181.633 405.244 178.361 407.733 177.554 410.096C176.747 412.459 182.086 413.956 184.309 413.564C186.901 413.117 191.39 411.313 192.509 409.649C193.628 407.985 194.166 405.524 195.073 404.293C195.979 403.063 198.103 401.707 198.599 400.294C198.745 398.973 198.595 397.637 198.16 396.379C197.806 395.065 197.438 393.583 196.984 393.736C196.984 393.89 196.984 394.547 196.984 394.547C195.909 395.385 194.573 395.83 193.203 395.806C192.113 395.89 189.408 395.68 189.422 394.841Z" fill="#263238"/>
<path d="M163.151 383.026C162.754 383.026 162.428 383.585 161.565 384.508C160.275 385.803 158.771 386.872 157.118 387.668C154.285 389.066 148.79 391.22 146.298 392.324C144.754 393.023 144.881 394.869 146.425 395.932C147.969 396.995 151.92 397.75 156.579 396.715C159.115 396.156 162.428 393.848 164.51 393.918C166.592 393.988 170.515 394.016 172.059 392.967C173.603 391.919 172.994 389.668 172.555 387.738C172.115 385.808 171.393 382.424 170.685 382.564V383.221C169.779 384.62 165.148 385.137 163.151 384.144V383.026Z" fill="#263238"/>
<path d="M153.039 265.668C151.439 262.717 151.042 262.592 150.079 261.948C149.116 261.305 143.295 260.438 140.874 260.242C138.041 260.005 137.007 260.522 137.8 262.941C139.993 269.038 142.664 274.956 145.788 280.643C146.553 281.636 146.708 282.559 149.909 282.867C153.11 283.174 156.665 283.314 157.769 283.384C158.874 283.454 160.403 283.72 159.412 280.504C158.147 276.873 156.686 273.311 155.036 269.835C153.875 267.192 153.039 265.668 153.039 265.668Z" fill="#37474F"/>
<path d="M211.09 274.533C211.019 273.61 208.258 263.179 206.841 258.355L196.475 261.878L198.911 269.471L208.031 278.798C208.998 278.61 209.855 278.063 210.424 277.269C210.994 276.475 211.232 275.495 211.09 274.533Z" fill="#FFA8A7"/>
<path d="M198.868 269.471C198.868 269.471 170.289 272.491 166.932 271.471C163.576 270.45 159.072 267.136 156.65 265.766C154.229 264.395 152.487 264.283 152.487 264.857C152.487 265.43 154.554 268.548 155.036 269.835C155.517 271.121 152.798 271.135 149.258 270.324C145.717 269.513 144.287 267.527 143.352 268.674C142.417 269.821 145.321 275.665 151.212 277.861C157.104 280.056 161.48 278.602 166.351 278.798C171.223 278.993 201.233 280.895 207.989 278.798C208.168 277.731 208.044 276.635 207.632 275.633C207.219 274.631 206.534 273.762 205.652 273.121C203.629 271.514 201.332 270.278 198.868 269.471Z" fill="#FFA8A7"/>
<path d="M187.496 233.046C191.985 234.514 200.893 235.255 203.768 244.847C206.643 254.439 208.088 260.662 208.088 260.662C206.388 262.899 199.59 265.486 196.475 264.521L187.496 233.046Z" fill="#455A64"/>
<path d="M196.475 264.521L193.401 253.754L196.475 268.912V264.521Z" fill="#37474F"/>
<path d="M132.008 287.145C131.866 287.327 130.663 289.298 130.663 289.298L125.125 297.129L119.729 305.113C119.559 305.356 119.316 305.54 119.033 305.638C118.751 305.736 118.444 305.743 118.157 305.658L117.789 305.533C115.92 304.847 113.115 303.687 109.391 301.995C106.403 300.597 106.558 300.191 106.558 299.688C106.519 299.288 106.519 298.885 106.558 298.485C107.167 297.339 109.051 294.472 111.586 290.851C116.09 284.391 118.256 281.524 119.602 279.664C119.794 279.393 120.077 279.198 120.401 279.113C120.725 279.029 121.069 279.06 121.372 279.203C123.794 280 128.708 282.083 131.286 283.118H131.399C132.787 283.859 132.022 287.089 132.008 287.145Z" fill="#37474F"/>
<path d="M132.15 286.893L130.733 289.298L125.323 297.283L119.658 305.071C119.488 305.314 119.245 305.498 118.962 305.596C118.68 305.694 118.373 305.701 118.086 305.616L117.718 305.491C115.849 304.805 113.045 303.645 109.32 301.953C106.332 300.555 106.488 300.149 106.488 299.646C106.449 299.246 106.449 298.843 106.488 298.443C109.32 299.674 118.285 303.869 118.582 303.715C119.29 303.379 125.366 293.759 128.595 288.851C130.209 286.404 130.932 285.369 131.427 284.53C131.518 284.43 131.586 284.312 131.626 284.183C131.666 284.055 131.677 283.919 131.658 283.786C131.639 283.652 131.591 283.525 131.517 283.412C131.443 283.299 131.344 283.204 131.229 283.132H131.116C131.434 283.298 131.708 283.534 131.917 283.823C132.126 284.112 132.264 284.445 132.32 284.796C132.474 285.131 132.539 285.5 132.51 285.866C132.48 286.233 132.356 286.587 132.15 286.893Z" fill="#37474F"/>
<path opacity="0.1" d="M132.15 286.893L130.733 289.298L125.323 297.283L119.658 305.071C119.488 305.314 119.245 305.498 118.962 305.596C118.68 305.694 118.373 305.701 118.086 305.616L117.718 305.491C115.849 304.805 113.045 303.645 109.32 301.953C106.332 300.555 106.488 300.149 106.488 299.646C106.449 299.246 106.449 298.843 106.488 298.443C109.32 299.674 118.285 303.869 118.582 303.715C119.29 303.379 125.366 293.759 128.595 288.851C130.209 286.404 130.932 285.369 131.427 284.53C131.518 284.43 131.586 284.312 131.626 284.183C131.666 284.055 131.677 283.919 131.658 283.786C131.639 283.652 131.591 283.525 131.517 283.412C131.443 283.299 131.344 283.204 131.229 283.132H131.116C131.434 283.298 131.708 283.534 131.917 283.823C132.126 284.112 132.264 284.445 132.32 284.796C132.474 285.131 132.539 285.5 132.51 285.866C132.48 286.233 132.356 286.587 132.15 286.893Z" fill="black"/>
<path d="M119.673 281.496L129.614 285.607L119.021 301.156L109.136 296.667L119.673 281.496Z" fill="#FAFAFA"/>
<path d="M116.883 335.679C119.602 334.91 123.709 324.927 126.796 313.601C129.884 302.274 131.512 299.772 131.611 296.206C131.711 292.64 131.456 287.956 131.456 287.956L126.074 295.717C125.841 294.219 125.362 292.77 124.658 291.424C123.964 290.026 122.661 288.921 121.599 289.76C121.032 290.207 122.533 292.123 122.208 296.402C122.181 298.107 122.352 299.81 122.718 301.477L112.719 325.388L116.883 335.679Z" fill="#FFA8A7"/>
<path d="M76.6477 286.096C73.4895 285.216 70.8128 286.879 69.3258 291.843C66.719 301.189 64.8254 310.715 63.6609 320.34C63.236 323.794 62.7545 327.989 66.0968 328.311C68.646 328.562 76.0103 327.164 77.2991 325.906C79.0269 324.256 78.7153 317.6 78.7153 317.6H74.8915C74.8915 317.6 75.7129 312.356 75.9537 310.762C76.8034 305.407 78.0639 298.653 78.0639 298.653L76.6477 286.096Z" fill="#F28F8F"/>
<path d="M95.1861 281.188L93.8973 292.389L82.7091 293.675L84.3236 278.811L95.1861 281.188Z" fill="#FFA8A7"/>
<path d="M71.2377 264.843C72.1582 254.495 77.8373 250.244 82.2276 249.21C91.0932 247.154 99.8455 250.091 103.471 256.201C104.301 258.114 104.729 260.174 104.729 262.256C104.729 264.337 104.301 266.397 103.471 268.31C101.545 272.645 71.2802 264.815 71.2802 264.815" fill="#263238"/>
<path d="M104.023 270.408C104.023 270.408 105.624 274.673 105.199 274.994C104.531 275.232 103.827 275.355 103.117 275.358L104.023 270.408Z" fill="#FFA8A7"/>
<path d="M99.2506 256.928C101.361 258.718 104.916 261.962 103.967 270.911C102.919 280.168 100.653 282.671 99.1231 283.566C98.1035 284.167 93.5857 283.118 91.4897 281.902C88.8838 280.378 83.1056 276.448 81.3495 271.149C79.2676 264.912 80.3157 257.474 84.8759 255.53C87.1963 254.544 89.7319 254.156 92.2458 254.4C94.7596 254.645 97.1697 255.514 99.2506 256.928Z" fill="#FFA8A7"/>
<path d="M101.856 257.166C101.902 259.641 101.382 262.094 100.335 264.343C99.2877 266.591 97.7409 268.578 95.8092 270.156C95.8092 270.156 94.4921 266.786 91.5605 267.555C88.6289 268.324 88.728 272.142 90.824 274.211C91.3675 274.803 92.0706 275.229 92.8508 275.439C93.631 275.65 94.4559 275.636 95.2285 275.4C94.8106 278.045 93.5565 280.492 91.6455 282.391C88.5958 283.083 85.4101 282.913 82.4542 281.899C79.4982 280.885 76.8917 279.068 74.934 276.658C68.4618 268.981 70.3737 256.788 80.4856 253.195C84.0609 251.778 87.9716 251.4 91.7576 252.103C95.5436 252.807 99.0473 254.563 101.856 257.166Z" fill="#263238"/>
<path d="M81.3637 449.696L86.193 456.323C83.9932 457.306 81.5964 457.784 79.1827 457.722C74.8632 457.89 73.6736 456.491 73.5178 456.156C72.7814 454.604 73.9285 451.821 74.2401 449.43L81.3637 449.696Z" fill="#263238"/>
<path d="M85.8956 453.122C85.8956 453.122 91.7446 452.744 95.8092 452.241C99.8737 451.737 103.06 453.639 102.111 455.331C101.163 457.023 98.9249 458.351 95.4551 459.526C92.4952 460.518 88.9263 461.232 85.8248 462.14C82.7232 463.049 80.6131 464.168 78.8144 463.539C76.8034 462.854 75.982 462.057 76.1094 460.616C76.5482 458.563 77.0917 456.533 77.7381 454.534L85.8956 453.122Z" fill="#263238"/>
<path d="M73.5178 443.012C73.5178 443.012 74.2401 449.025 74.2967 450.325C74.3534 451.625 80.2449 452.031 81.3779 449.668L81.562 442.313L73.5178 443.012Z" fill="#F28F8F"/>
<path d="M79.4518 446.717L77.3982 455.848C77.3982 455.848 77.1858 456.953 82.0151 457.666C86.8445 458.379 94.3788 455.177 95.6676 454.534C96.9563 453.89 97.0838 452.59 92.3678 452.842C87.6517 453.093 85.9664 453.121 85.9664 453.121L87.5101 449.066L79.4518 446.717Z" fill="#FFA8A7"/>
<path d="M73.5177 324.479C69.4814 330.674 65.6576 336.127 64.8362 343.091C63.1084 357.801 68.7733 374.608 69.9771 385.487C67.6871 388.582 66.363 392.271 66.1674 396.1C66.1674 400.602 73.5177 443.012 73.5177 443.012C73.5177 443.012 78.8568 444.62 81.5477 442.313L86.6036 364.289L83.9411 354.794L73.5177 324.479Z" fill="#455A64"/>
<path d="M86.6037 364.288L83.9412 354.794C78.9302 353.507 74.0943 351.63 69.5382 349.201C69.5382 349.201 72.2715 354.095 80.0749 356.78L84.1395 368.987L84.4936 396.952L86.6037 364.288Z" fill="#37474F"/>
<path d="M73.5177 324.479C71.3651 327.947 66.1959 333.904 67.3005 339.609C68.6318 346.6 72.3989 351.396 83.9412 354.794L94.7611 393.485C94.7611 393.485 89.0962 398.7 87.4109 403.65C85.7256 408.6 79.4517 446.717 79.4517 446.717C79.4517 446.717 81.3778 449.822 87.4676 449.066C87.4676 449.066 108.711 401.259 110.127 398.183C111.939 395.034 112.576 391.358 111.926 387.794C111.246 382.788 104.023 327.947 104.023 327.947L73.5177 324.479Z" fill="#455A64"/>
<path d="M71.5492 289.564C71.9833 288.424 72.8014 287.465 73.8662 286.849C74.9311 286.233 76.1781 285.997 77.3982 286.18C84.9467 288.208 96.6872 290.879 98.9107 291.522C98.9107 291.522 97.9052 305.882 106.601 310.944C106.19 314.146 103.981 327.947 103.981 327.947C103.981 327.947 93.5291 332.953 84.9326 330.492C76.3361 328.031 73.447 324.479 73.447 324.479L77.6956 317.558C76.7751 315.307 73.2204 307.658 70.9261 300.555C70.13 296.902 70.3453 293.106 71.5492 289.564Z" fill="#FFB900"/>
<path d="M76.6476 314.831C80.2231 316.955 83.9699 318.783 87.8499 320.298C84.3234 320.208 80.876 319.247 77.8231 317.502L76.6476 314.831Z" fill="#E0E0E0"/>
<path d="M106.417 309.867C103.328 308.469 100.786 306.112 99.1799 303.155C99.4404 305.427 100.229 307.609 101.485 309.53C102.74 311.451 104.428 313.059 106.417 314.23V309.867Z" fill="#E0E0E0"/>
<path d="M98.9816 291.522C103.726 292.92 106.672 293.367 109.235 295.633C112.606 298.625 116.09 315.544 116.798 319.04C118.03 325.095 119.389 331.387 118.058 334.211C117.095 336.253 111.855 337.777 109.561 331.177C109.079 329.779 108.98 329.136 108.555 327.877C106.388 321.557 103.131 309.476 103.131 309.476C103.131 309.476 96.7156 305.98 98.9816 291.522Z" fill="#FFA8A7"/>
<path d="M75.982 253.195C74.2967 254.16 71.2518 255.097 69.3541 263.836C67.8091 271.167 66.89 278.613 66.6066 286.096C66.6774 288.809 72.3706 296.346 84.3802 295.633C96.3898 294.92 100.752 287.97 100.752 287.97C100.752 287.97 94.8461 285.593 95.3135 275.386C95.3135 275.386 93.2316 279.427 87.5242 277.399C81.8168 275.372 75.982 253.195 75.982 253.195Z" fill="#263238"/>
</svg>
